<mxfile modified="2024-01-03T07:39:07.923Z" host="app.diagrams.net" agent="Mozilla/5.0 (X11; Linux x86_64) AppleWebKit/537.36 (KHTML, like Gecko) Chrome/120.0.0.0 Safari/537.36" etag="hWx7YIM5EmVdNcsLwT35" version="22.1.15" type="device">
  <diagram id="Ht1M8jgEwFfnCIfOTk4-" name="Page-1">
    <mxGraphModel dx="2004" dy="292" grid="1" gridSize="10" guides="1" tooltips="1" connect="1" arrows="1" fold="1" page="1" pageScale="1" pageWidth="1169" pageHeight="827" math="0" shadow="0">
      <root>
        <mxCell id="0" />
        <mxCell id="1" parent="0" />
        <mxCell id="OGPzLnObp-uMfyhkpZSs-1" value="Camera" style="sketch=0;outlineConnect=0;fontColor=#232F3E;gradientColor=none;fillColor=#232F3D;strokeColor=none;dashed=0;verticalLabelPosition=bottom;verticalAlign=top;align=center;html=1;fontSize=12;fontStyle=0;aspect=fixed;pointerEvents=1;shape=mxgraph.aws4.camera2;" vertex="1" parent="1">
          <mxGeometry x="220" y="990" width="78" height="62" as="geometry" />
        </mxCell>
        <mxCell id="OGPzLnObp-uMfyhkpZSs-2" value="Amazon Interactive Video Service" style="sketch=0;points=[[0,0,0],[0.25,0,0],[0.5,0,0],[0.75,0,0],[1,0,0],[0,1,0],[0.25,1,0],[0.5,1,0],[0.75,1,0],[1,1,0],[0,0.25,0],[0,0.5,0],[0,0.75,0],[1,0.25,0],[1,0.5,0],[1,0.75,0]];outlineConnect=0;fontColor=#232F3E;fillColor=#ED7100;strokeColor=#ffffff;dashed=0;verticalLabelPosition=bottom;verticalAlign=top;align=center;html=1;fontSize=12;fontStyle=0;aspect=fixed;shape=mxgraph.aws4.resourceIcon;resIcon=mxgraph.aws4.interactive_video;" vertex="1" parent="1">
          <mxGeometry x="560" y="1052" width="78" height="78" as="geometry" />
        </mxCell>
        <mxCell id="OGPzLnObp-uMfyhkpZSs-3" value="Display" style="sketch=0;outlineConnect=0;fontColor=#232F3E;gradientColor=none;fillColor=#232F3D;strokeColor=none;dashed=0;verticalLabelPosition=bottom;verticalAlign=top;align=center;html=1;fontSize=12;fontStyle=0;aspect=fixed;pointerEvents=1;shape=mxgraph.aws4.mobile_client;" vertex="1" parent="1">
          <mxGeometry x="238.5" y="1120" width="41" height="78" as="geometry" />
        </mxCell>
        <mxCell id="OGPzLnObp-uMfyhkpZSs-4" value="Remote server" style="sketch=0;outlineConnect=0;fontColor=#232F3E;gradientColor=none;fillColor=#232F3D;strokeColor=none;dashed=0;verticalLabelPosition=bottom;verticalAlign=top;align=center;html=1;fontSize=12;fontStyle=0;aspect=fixed;pointerEvents=1;shape=mxgraph.aws4.traditional_server;" vertex="1" parent="1">
          <mxGeometry x="900" y="1052" width="45" height="78" as="geometry" />
        </mxCell>
        <mxCell id="OGPzLnObp-uMfyhkpZSs-5" value="" style="edgeStyle=orthogonalEdgeStyle;html=1;endArrow=block;elbow=vertical;startArrow=none;endFill=1;strokeColor=#929daa;rounded=1;entryX=0;entryY=0.25;entryDx=0;entryDy=0;entryPerimeter=0;curved=0;strokeWidth=4;endSize=8;startSize=8;jumpSize=6;" edge="1" parent="1" source="OGPzLnObp-uMfyhkpZSs-1" target="OGPzLnObp-uMfyhkpZSs-2">
          <mxGeometry width="100" relative="1" as="geometry">
            <mxPoint x="530" y="810" as="sourcePoint" />
            <mxPoint x="630" y="810" as="targetPoint" />
          </mxGeometry>
        </mxCell>
        <mxCell id="OGPzLnObp-uMfyhkpZSs-6" value="" style="edgeStyle=orthogonalEdgeStyle;html=1;endArrow=none;elbow=vertical;startArrow=block;startFill=1;strokeColor=#929daa;rounded=1;entryX=0;entryY=0.75;entryDx=0;entryDy=0;entryPerimeter=0;exitX=1.012;exitY=0.513;exitDx=0;exitDy=0;exitPerimeter=0;curved=0;strokeWidth=4;endSize=8;startSize=8;jumpSize=6;" edge="1" parent="1" source="OGPzLnObp-uMfyhkpZSs-3" target="OGPzLnObp-uMfyhkpZSs-2">
          <mxGeometry width="100" relative="1" as="geometry">
            <mxPoint x="530" y="1290" as="sourcePoint" />
            <mxPoint x="630" y="1290" as="targetPoint" />
            <Array as="points">
              <mxPoint x="430" y="1160" />
              <mxPoint x="430" y="1111" />
            </Array>
          </mxGeometry>
        </mxCell>
        <mxCell id="OGPzLnObp-uMfyhkpZSs-7" value="" style="edgeStyle=orthogonalEdgeStyle;html=1;endArrow=block;elbow=vertical;startArrow=block;startFill=1;endFill=1;strokeColor=#929daa;rounded=1;curved=0;strokeWidth=4;endSize=8;startSize=8;jumpSize=6;" edge="1" parent="1" source="OGPzLnObp-uMfyhkpZSs-2" target="OGPzLnObp-uMfyhkpZSs-4">
          <mxGeometry width="100" relative="1" as="geometry">
            <mxPoint x="530" y="1290" as="sourcePoint" />
            <mxPoint x="890" y="1090" as="targetPoint" />
          </mxGeometry>
        </mxCell>
      </root>
    </mxGraphModel>
  </diagram>
</mxfile>
